# xmcd CD database file
#
# Track frame offsets:
#	150
#	11422
#	38962
#	52817
#	64045
#	85165
#	100392
#	127357
#	140795
#	176897
#	190847
#	204997
#	228810
#	245237
#	251307
#	272452
#
# Disc length: 3849 seconds
#
# Revision: 3
# Processed by: cddbd v1.5.2PL0 Copyright (c) Steve Scherf et al.
# Submitted via: CDex 1.51
#
DISCID=e10f0710
DTITLE=Kip Hanrahan - A thousands nights and a night (Shadow Nights 1)
DYEAR=1997
DGENRE=Jazz
TTITLE0=Shahrazade (Opening)
TTITLE1=Sitt Al Milla/Zumurrud
TTITLE2=Jewish Doctor's Tale (Opening)
TTITLE3=Aziz and Azizah (Opening)
TTITLE4=Diente de Oro
TTITLE5=Aziz and Azizah (Continued)
TTITLE6=Al Mumuun and the Arab Girl by the Well
TTITLE7=Lost Prince [Excerpt from the Third Dervish's Tale]
TTITLE8=Princess Dunya and Taj Al-Muluk
TTITLE9=Princess Dunya's Nocturnal Realization
TTITLE10=Shahrazad Shifts Angels, Introducing
TTITLE11=Yemeni Merchant and the Three Different Colored Women
TTITLE12=inniya Who Envied Human Suffering
TTITLE13=Hasheater's Tale
TTITLE14=Angel Charles and the Caravan of Jinns
TTITLE15=Shahrazade and the Closing of the First Night of Stories
EXTD=YEAR: 1997
EXTT0=
EXTT1=
EXTT2=
EXTT3=
EXTT4=
EXTT5=
EXTT6=
EXTT7=
EXTT8=
EXTT9=
EXTT10=
EXTT11=
EXTT12=
EXTT13=
EXTT14=
EXTT15=
PLAYORDER=
